# xmcd
#
# Track frame offsets:
#	150
#	14586
#	30655
#	47598
#	68549
#	83679
#	103255
#	118525
#	136635
#	154107
#	173581
#	190185
#
# Disc length: 2727 seconds
# Revision: 0
# Processed by: cddbd v1.5.2PL0 Copyright (c) Steve Scherf et al.
# Submitted via: dBpowerAMP V12.0
#
DISCID=8d0aa50c
DTITLE=Dina Buendía - A Placer Con Sabor
DYEAR=2015
DGENRE=Ranchero
TTITLE0=LA MALQUERIDA
TTITLE1=ME VOY A IR
TTITLE2=COSAS QUE NUNCA TE DIJE
TTITLE3=LA CITA 
TTITLE4=EL LISTÓN DE TU PELO
TTITLE5=CORAZÓN PARTÍO 
TTITLE6=AUNQUE NO SEA CONMIGO
TTITLE7=EN AQUEL LUGAR 
TTITLE8=DEVÓRAME OTRA VEZ
TTITLE9=YO NO SE MAÑANA 
TTITLE10=RECUERDOS 
TTITLE11=Y LLEGASTE TÚ
EXTD=
EXTT0=
EXTT1=
EXTT2=
EXTT3=
EXTT4=
EXTT5=
EXTT6=
EXTT7=
EXTT8=
EXTT9=
EXTT10=
EXTT11=
PLAYORDER=
